<?xml version="1.0" encoding="UTF-8" standalone="no"?>
<svg
   version="1.1"
   width="640"
   height="640"
   viewBox="0 0 640 640"
   id="svg17"
   sodipodi:docname="nokkvi_potrace.svg"
   xmlns:inkscape="http://www.inkscape.org/namespaces/inkscape"
   xmlns:sodipodi="http://sodipodi.sourceforge.net/DTD/sodipodi-0.dtd"
   xmlns:xlink="http://www.w3.org/1999/xlink"
   xmlns="http://www.w3.org/2000/svg"
   xmlns:svg="http://www.w3.org/2000/svg">
  <sodipodi:namedview
     id="namedview17"
     pagecolor="#ffffff"
     bordercolor="#000000"
     borderopacity="0.25"
     inkscape:showpageshadow="2"
     inkscape:pageopacity="0.0"
     inkscape:pagecheckerboard="0"
     inkscape:deskcolor="#d1d1d1" />
  <defs
     id="defs3">
    <linearGradient
       id="amber"
       x1="0"
       y1="0"
       x2="1"
       y2="1">
      <stop
         offset="0%"
         stop-color="#eebd5a"
         id="stop1" />
      <stop
         offset="45%"
         stop-color="#d9922a"
         id="stop2" />
      <stop
         offset="100%"
         stop-color="#c45e1a"
         id="stop3" />
    </linearGradient>
    <linearGradient
       inkscape:collect="always"
       xlink:href="#amber"
       id="linearGradient17"
       x1="16549.735"
       y1="618.81214"
       x2="16854.34"
       y2="923.4165"
       gradientTransform="scale(0.19164204,5.2180619)"
       gradientUnits="userSpaceOnUse" />
    <linearGradient
       inkscape:collect="always"
       xlink:href="#amber"
       id="linearGradient18"
       x1="3944.4056"
       y1="2530.5622"
       x2="5421.7847"
       y2="4007.9412"
       gradientTransform="scale(0.83409161,1.1989091)"
       gradientUnits="userSpaceOnUse" />
    <linearGradient
       inkscape:collect="always"
       xlink:href="#amber"
       id="linearGradient19"
       x1="1838.5087"
       y1="2369.6286"
       x2="3906.5732"
       y2="4437.6931"
       gradientTransform="scale(1.0258133,0.97483629)"
       gradientUnits="userSpaceOnUse" />
    <linearGradient
       inkscape:collect="always"
       xlink:href="#amber"
       id="linearGradient20"
       x1="2620.6138"
       y1="3715.8109"
       x2="2901.3049"
       y2="3996.502"
       gradientTransform="scale(1.0409109,0.96069699)"
       gradientUnits="userSpaceOnUse" />
    <linearGradient
       inkscape:collect="always"
       xlink:href="#amber"
       id="linearGradient21"
       x1="1747.5108"
       y1="4616.5951"
       x2="2237.9744"
       y2="5107.0587"
       gradientTransform="scale(1.3941178,0.71729948)"
       gradientUnits="userSpaceOnUse" />
    <linearGradient
       inkscape:collect="always"
       xlink:href="#amber"
       id="linearGradient22"
       x1="3500.1855"
       y1="2251.8115"
       x2="4826.4855"
       y2="3578.1115"
       gradientTransform="scale(0.98361305,1.01666)"
       gradientUnits="userSpaceOnUse" />
    <linearGradient
       inkscape:collect="always"
       xlink:href="#amber"
       id="linearGradient23"
       x1="5921.1248"
       y1="1983.9538"
       x2="6762.2982"
       y2="2825.1273"
       gradientTransform="scale(0.77717796,1.2867066)"
       gradientUnits="userSpaceOnUse" />
    <linearGradient
       inkscape:collect="always"
       xlink:href="#amber"
       id="linearGradient24"
       x1="6259.2014"
       y1="1931.9307"
       x2="6867.3937"
       y2="2540.123"
       gradientTransform="scale(0.7301251,1.3696283)"
       gradientUnits="userSpaceOnUse" />
    <linearGradient
       inkscape:collect="always"
       xlink:href="#amber"
       id="linearGradient25"
       x1="6483.4484"
       y1="1922.4895"
       x2="6872.6017"
       y2="2311.6428"
       gradientTransform="scale(0.69425336,1.4403963)"
       gradientUnits="userSpaceOnUse" />
    <linearGradient
       inkscape:collect="always"
       xlink:href="#amber"
       id="linearGradient26"
       x1="7152.4427"
       y1="1784.2945"
       x2="7333.3345"
       y2="1965.1863"
       gradientTransform="scale(0.61740294,1.6196878)"
       gradientUnits="userSpaceOnUse" />
    <linearGradient
       inkscape:collect="always"
       xlink:href="#amber"
       id="linearGradient27"
       x1="763.88413"
       y1="2378.8236"
       x2="3089.589"
       y2="4704.5285"
       gradientTransform="scale(1.4949024,0.66893998)"
       gradientUnits="userSpaceOnUse" />
    <linearGradient
       inkscape:collect="always"
       xlink:href="#amber"
       id="linearGradient28"
       x1="872.09698"
       y1="2779.8802"
       x2="2811.5996"
       y2="4719.3828"
       gradientTransform="scale(1.5862856,0.6304035)"
       gradientUnits="userSpaceOnUse" />
    <linearGradient
       inkscape:collect="always"
       xlink:href="#amber"
       id="linearGradient29"
       x1="934.3176"
       y1="3361.0123"
       x2="2483.8705"
       y2="4910.5652"
       gradientTransform="scale(1.7475321,0.57223556)"
       gradientUnits="userSpaceOnUse" />
    <linearGradient
       inkscape:collect="always"
       xlink:href="#amber"
       id="linearGradient30"
       x1="1802.4961"
       y1="3645.8083"
       x2="2545.2898"
       y2="4388.602"
       gradientTransform="scale(1.6265338,0.6148043)"
       gradientUnits="userSpaceOnUse" />
    <linearGradient
       inkscape:collect="always"
       xlink:href="#amber"
       id="linearGradient31"
       x1="912.18475"
       y1="4258.2972"
       x2="2060.5636"
       y2="5406.6761"
       gradientTransform="scale(2.0479834,0.48828522)"
       gradientUnits="userSpaceOnUse" />
    <linearGradient
       inkscape:collect="always"
       xlink:href="#amber"
       id="linearGradient32"
       x1="1011.4406"
       y1="1796.5916"
       x2="4654.9481"
       y2="5440.0991"
       gradientTransform="scale(1.1290156,0.88572733)"
       gradientUnits="userSpaceOnUse" />
  </defs>
  <!-- Dark background -->
  <rect
     width="640"
     height="640"
     fill="#282828"
     id="rect3"
     x="0"
     y="0" />
  <!-- Boat paths (recolored from potrace output) -->
  <g
     transform="matrix(0.1,0,0,-0.1,0,640)"
     fill="url(#amber)"
     stroke="none"
     id="g17"
     style="fill:url(#linearGradient32)">
    <path
       d="m 3175,4808 c -3,-7 -4,-364 -3,-793 l 3,-780 28,-3 27,-3 -2,793 -3,793 -23,3 c -12,2 -24,-3 -27,-10 z"
       id="path3"
       style="fill:url(#linearGradient17)" />
    <path
       d="m 4329,4796 c -58,-21 -96,-53 -120,-104 -25,-50 -26,-72 -18,-293 4,-94 3,-97 -34,-171 -81,-164 -191,-233 -637,-398 -234,-86 -230,-84 -230,-119 v -29 l 78,30 c 42,16 158,60 257,98 368,138 501,226 578,380 l 25,50 7,-75 c 8,-79 -9,-285 -25,-315 -7,-12 -28,-19 -72,-24 -115,-13 -468,-107 -468,-126 0,-3 21,-11 48,-18 26,-7 147,-43 270,-79 l 222,-66 -22,-25 c -32,-34 -141,-120 -218,-172 -36,-24 -67,-45 -69,-47 -3,-2 4,-13 15,-23 20,-20 20,-20 94,31 213,146 334,277 395,425 27,64 32,48 14,-38 -33,-153 -156,-331 -320,-461 -77,-61 -78,-62 -59,-81 19,-19 20,-19 67,19 75,61 207,198 243,254 47,73 48,56 1,-41 -43,-91 -99,-172 -178,-258 -46,-51 -50,-57 -37,-75 14,-18 16,-17 60,25 189,184 286,415 286,680 1,188 -24,277 -142,520 -101,207 -117,264 -99,350 24,115 131,170 200,101 52,-52 29,-171 -36,-187 -50,-12 -80,62 -35,86 27,14 27,50 0,50 -36,0 -70,-44 -70,-89 0,-92 99,-133 167,-70 126,119 18,342 -138,285 z m -11,-594 c 62,-140 81,-242 62,-351 -14,-87 -19,-90 -74,-52 -43,30 -43,30 -35,73 14,73 21,270 11,336 -11,80 -2,78 36,-6 z m -10,-469 27,-22 -23,-44 c -13,-25 -34,-55 -47,-67 l -22,-21 -189,56 c -244,73 -222,65 -204,75 23,12 237,60 310,69 69,8 89,2 148,-46 z"
       id="path4"
       style="fill:url(#linearGradient18)" />
    <path
       d="m 2165,4259 c -93,-38 -173,-73 -177,-77 -11,-12 57,-267 71,-264 7,1 37,21 67,44 30,22 57,39 59,36 8,-7 -81,-320 -111,-390 -14,-35 -48,-107 -75,-161 -85,-168 -112,-244 -113,-317 -2,-144 86,-345 236,-544 34,-45 95,-125 135,-178 55,-73 79,-98 96,-98 481,2 1025,185 1539,519 118,76 130,89 104,110 -12,10 -32,0 -103,-47 -486,-325 -814,-421 -1161,-341 -154,35 -275,103 -400,223 -105,101 -113,117 -121,244 -7,98 -5,135 6,105 24,-66 198,-241 302,-303 350,-208 768,-165 1278,132 117,68 119,70 95,91 -16,14 -26,10 -117,-45 -297,-179 -591,-269 -825,-255 -315,20 -579,188 -714,454 l -26,53 15,102 c 21,141 23,143 53,53 149,-441 650,-610 1189,-402 108,42 313,144 313,156 0,11 -29,36 -44,36 -10,1 -388,124 -428,140 -15,6 -18,2 -18,-22 0,-29 1,-29 183,-88 100,-32 185,-61 190,-65 4,-3 -37,-27 -92,-52 l -99,-46 -263,90 c -145,49 -294,99 -331,110 -38,12 -68,24 -68,27 0,4 41,26 90,51 l 90,44 54,-17 c 69,-22 78,-22 74,5 -2,18 -17,28 -65,45 l -62,22 -161,-76 c -88,-42 -160,-79 -160,-82 1,-3 157,-57 348,-120 191,-63 351,-118 356,-122 13,-11 -107,-45 -212,-59 -455,-62 -812,178 -863,580 -8,70 -6,88 27,230 47,207 61,350 43,454 -8,44 -18,81 -24,82 -5,1 -86,-29 -180,-67 z m 154,-112 c 1,-109 -12,-186 -80,-469 -72,-298 -89,-407 -89,-558 0,-261 62,-463 207,-673 l 54,-78 -33,3 c -59,6 -187,202 -249,385 -94,277 -78,584 52,1003 31,101 81,331 74,338 -8,9 -64,-20 -117,-60 l -53,-39 -13,43 c -7,24 -14,58 -15,76 l -2,33 125,52 c 144,61 138,64 139,-56 z m -289,-807 c -5,-29 -10,-108 -10,-175 0,-80 -5,-134 -14,-156 -7,-19 -16,-43 -21,-54 -21,-58 -58,163 -39,238 12,47 84,210 91,204 2,-2 -1,-28 -7,-57 z m 17,-477 c 26,-120 26,-121 -6,-61 -23,43 -29,65 -25,87 9,45 18,38 31,-26 z m 362,-223 c 148,-100 314,-156 500,-167 67,-4 97,-9 84,-14 -75,-28 -412,-89 -490,-89 -44,0 -210,260 -239,374 -6,27 -5,27 38,-16 24,-25 73,-64 107,-88 z"
       id="path5"
       style="fill:url(#linearGradient19)" />
    <path
       d="m 2854,3710 c -152,-154 -154,-157 -73,-122 67,30 239,197 239,234 0,41 -42,12 -166,-112 z"
       id="path6"
       style="fill:url(#linearGradient20)" />
    <path
       d="m 3070,3653 c -183,-77 -611,-281 -632,-302 -4,-4 -1,-16 7,-28 15,-21 16,-20 177,61 90,45 238,115 331,156 146,64 167,76 167,96 0,31 -9,34 -50,17 z"
       id="path7"
       style="fill:url(#linearGradient21)" />
    <path
       d="m 3444,3625 c -5,-11 6,-30 33,-58 95,-101 535,-561 620,-647 l 93,-96 16,-84 c 22,-124 22,-123 187,-294 184,-189 181,-189 281,-95 108,100 106,109 -68,289 -176,182 -159,171 -347,214 -28,6 -148,126 -654,656 -120,125 -149,146 -161,115 z m 932,-856 c 38,-10 61,-30 179,-155 74,-79 135,-149 135,-157 0,-7 -22,-35 -50,-62 -43,-42 -53,-48 -73,-39 -41,16 -283,276 -290,311 -3,17 -9,44 -13,59 -5,24 7,16 74,-55 69,-73 83,-83 96,-71 25,20 21,27 -61,113 -43,44 -70,77 -59,73 10,-3 38,-11 62,-17 z"
       id="path8"
       style="fill:url(#linearGradient22)" />
    <path
       d="m 4602,3624 c 2,-10 39,-30 98,-53 579,-226 684,-616 257,-956 -45,-36 -54,-54 -30,-62 17,-6 150,105 203,170 241,296 129,622 -285,829 -138,69 -249,102 -243,72 z"
       id="path9"
       style="fill:url(#linearGradient23)" />
    <path
       d="m 4570,3467 c 0,-7 47,-37 105,-66 201,-100 290,-211 290,-361 0,-127 -45,-200 -208,-335 -36,-30 -45,-44 -38,-54 8,-12 24,-4 85,43 322,247 269,562 -126,751 -77,37 -108,43 -108,22 z"
       id="path10"
       style="fill:url(#linearGradient24)" />
    <path
       d="m 4507,3323 c -14,-13 -6,-21 59,-59 192,-112 216,-273 60,-410 -83,-73 -72,-121 13,-50 191,160 174,359 -43,495 -49,30 -76,38 -89,24 z"
       id="path11"
       style="fill:url(#linearGradient25)" />
    <path
       d="m 4420,3167 c 0,-8 11,-24 25,-37 53,-50 52,-116 -2,-179 -33,-39 -36,-61 -8,-61 46,0 103,117 91,185 -12,61 -106,143 -106,92 z"
       id="path12"
       style="fill:url(#linearGradient26)" />
    <path
       d="m 1660,3114 c -547,-298 -674,-726 -318,-1071 433,-419 1350,-567 2202,-357 363,90 1063,374 1074,437 5,28 -17,21 -159,-51 -362,-183 -830,-343 -1159,-396 -227,-37 -282,-41 -535,-41 -349,1 -544,29 -824,121 -899,295 -1017,940 -243,1328 71,36 88,59 46,63 -10,1 -48,-14 -84,-33 z"
       id="path13"
       style="fill:url(#linearGradient27)" />
    <path
       d="m 1710,2943 c -36,-21 -106,-79 -157,-128 -474,-465 94,-1012 1102,-1060 316,-16 720,44 1074,157 282,90 731,292 731,328 0,29 -4,27 -172,-54 -825,-400 -1631,-493 -2288,-264 -529,185 -717,531 -451,829 52,58 159,143 219,173 21,11 32,23 30,33 -5,27 -21,25 -88,-14 z"
       id="path14"
       style="fill:url(#linearGradient28)" />
    <path
       d="m 1788,2775 c -53,-42 -96,-93 -129,-155 -35,-65 -35,-205 0,-270 219,-417 1122,-554 1953,-296 252,79 693,273 722,319 23,37 -12,27 -132,-35 -836,-436 -1825,-502 -2332,-155 -242,167 -265,407 -52,562 40,29 56,65 29,65 -8,0 -34,-16 -59,-35 z"
       id="path15"
       style="fill:url(#linearGradient29)" />
    <path
       d="m 4025,2649 c -271,-169 -640,-303 -985,-358 -87,-13 -105,-19 -108,-35 -10,-51 401,40 683,151 227,90 525,248 525,278 0,25 -32,15 -115,-36 z"
       id="path16"
       style="fill:url(#linearGradient30)" />
    <path
       d="m 1899,2603 c -81,-136 0,-285 213,-392 360,-181 929,-175 1496,15 261,88 612,258 612,296 0,24 -35,13 -145,-47 -628,-340 -1385,-444 -1871,-256 -237,92 -353,251 -263,364 24,32 25,57 0,57 -11,0 -28,-15 -42,-37 z"
       id="path17"
       style="fill:url(#linearGradient31)" />
  </g>
</svg>
