<svg width="256" height="256" version="1.1" xmlns="http://www.w3.org/2000/svg">
  <defs>
    <!-- Gruvbox background gradient (from icon theme) -->
    <linearGradient id="bg" x1=".5" x2=".5" y2="1" gradientTransform="matrix(244,0,0,228,5.981,12)" gradientUnits="userSpaceOnUse">
      <stop stop-color="#3c3836" offset="0"/>
      <stop stop-color="#3c3836" offset="1"/>
    </linearGradient>
    <!-- Border overlay (from icon theme) -->
    <linearGradient id="border" x1=".5" x2=".5" y2="1" gradientTransform="matrix(244,0,0,228,5.986,12)" gradientUnits="userSpaceOnUse">
      <stop stop-color="#ebdbb2" stop-opacity=".2" offset="0"/>
      <stop stop-color="#ebdbb2" stop-opacity=".05" offset=".1"/>
      <stop stop-opacity="0" offset=".7036"/>
      <stop stop-opacity=".1" offset=".8975"/>
      <stop stop-opacity=".2" offset="1"/>
    </linearGradient>
    <!-- Boat colors -->
    <linearGradient id="amber" x1="0%" y1="0%" x2="100%" y2="100%">
      <stop offset="0%" stop-color="#eebd5a"/>
      <stop offset="45%" stop-color="#d9922a"/>
      <stop offset="100%" stop-color="#c45e1a"/>
    </linearGradient>
    <linearGradient id="wave" x1="0%" y1="0%" x2="100%" y2="100%">
      <stop offset="0%" stop-color="#83a598"/>
      <stop offset="100%" stop-color="#458588"/>
    </linearGradient>
    <linearGradient id="wave-dark" x1="0%" y1="0%" x2="100%" y2="100%">
      <stop offset="0%" stop-color="#689d6a"/>
      <stop offset="100%" stop-color="#458588"/>
    </linearGradient>
  </defs>

  <!-- Background squircle (Gruvbox bg0_hard) -->
  <path d="m165 12c72 0 85 15 85 87v56c0 70-13 85-85 85h-74c-72 0-85-15-85-85v-56c0-72 13-87 85-87z" fill="url(#bg)" style="isolation:isolate"/>

  <!-- Boat + waves content, scaled to fit inside the squircle with padding -->
  <g transform="translate(10, 6) scale(0.23, 0.23)">
    <!-- Boat (amber gradient) -->
    <g transform="translate(0.000000,1024.000000) scale(0.100000,-0.100000)"
    fill="#ebdbb2" stroke="none">
    <path d="M5073 8525 c-57 -25 -65 -49 -74 -228 -4 -89 -8 -186 -8 -214 -1 -53
    -1 -53 -829 -53 -763 0 -829 -1 -852 -17 -39 -27 -49 -45 -50 -90 0 -33 6 -50
    28 -74 27 -30 34 -32 110 -37 45 -2 86 -10 90 -16 10 -13 96 -234 122 -316 71
    -219 88 -284 129 -485 43 -212 55 -339 54 -605 0 -271 -10 -374 -59 -620 -46
    -230 -129 -492 -224 -712 -48 -111 -50 -123 -12 -114 15 3 56 13 92 21 405 92
    832 165 1095 185 61 5 147 12 193 16 82 7 82 7 80 -295 -3 -301 -3 -301 -838
    -301 -939 1 -964 2 -1117 71 -137 61 -226 145 -292 275 -47 92 -63 166 -67
    304 -3 125 -3 125 -162 128 -159 2 -159 2 -196 -115 -82 -258 -107 -369 -127
    -573 -30 -301 34 -624 167 -852 25 -42 51 -81 57 -87 10 -7 37 6 102 50 263
    176 543 233 845 172 161 -32 273 -86 514 -247 99 -66 239 -133 331 -160 33
    -10 74 -22 90 -28 47 -16 342 -22 421 -9 100 17 266 75 352 123 41 22 123 74
    183 114 128 86 233 141 343 178 230 77 507 69 726 -21 79 -32 211 -108 351
    -200 57 -37 124 -77 147 -87 44 -20 44 -20 90 4 164 86 359 245 475 388 98
    120 191 290 246 446 37 106 81 313 81 384 0 58 16 78 24 30 3 -18 10 -60 16
    -92 22 -131 7 -405 -30 -546 -61 -234 -182 -455 -345 -628 -47 -49 -85 -93
    -85 -97 0 -5 51 -5 113 -2 102 5 149 15 310 63 74 23 237 274 317 489 69 190
    101 457 82 689 -23 274 -95 511 -261 860 -114 239 -178 408 -196 513 -7 42 -7
    42 64 6 62 -32 78 -36 144 -36 91 1 147 23 216 88 144 135 130 386 -29 514
    -215 172 -547 85 -676 -178 -53 -109 -67 -174 -67 -326 -1 -157 11 -230 75
    -475 37 -142 40 -166 40 -280 -1 -146 -21 -242 -77 -352 -138 -276 -402 -450
    -738 -487 -58 -7 -337 -11 -697 -11 -600 0 -600 0 -600 307 0 306 0 306 188
    300 207 -7 318 -19 467 -48 190 -37 368 -92 518 -161 57 -27 70 -29 78 -17 26
    41 117 368 158 568 68 329 85 506 85 876 0 384 -14 526 -90 905 -25 124 -93
    380 -120 453 -8 20 -14 42 -14 47 0 6 27 10 60 10 33 0 76 6 95 14 36 15 65
    59 65 98 0 33 -36 87 -66 98 -15 6 -300 10 -740 10 -714 0 -714 0 -715 63 0
    34 -4 127 -8 207 -9 165 -21 203 -76 226 -42 17 -51 17 -92 -1z"/>
    </g>

    <!-- Top wave band -->
    <g transform="translate(0.000000,1024.000000) scale(0.100000,-0.100000)"
    fill="#689d6a" stroke="none">
    <path d="M2894 3726 c-112 -29 -227 -87 -367 -183 -257 -177 -470 -253 -757
    -270 -125 -8 -125 -8 -125 -303 0 -295 0 -295 109 -298 91 -2 127 2 213 23
    166 42 257 85 451 212 286 188 433 238 702 236 245 -1 389 -50 650 -223 288
    -190 462 -249 732 -250 262 0 451 64 714 243 169 115 280 168 434 205 245 60
    495 30 732 -88 69 -34 111 -60 268 -168 49 -34 183 -100 260 -129 118 -45 224
    -63 372 -63 265 0 429 56 724 247 77 50 167 105 202 122 93 47 232 91 314 99
    73 7 73 7 73 307 0 300 0 300 -50 297 -61 -4 -210 -53 -273 -89 -26 -15 -100
    -62 -164 -104 -415 -273 -763 -339 -1195 -225 -126 33 -265 105 -505 261 -136
    88 -246 135 -364 156 -100 17 -302 7 -389 -21 -81 -25 -226 -100 -329 -169
    -309 -209 -512 -276 -831 -275 -296 1 -474 57 -770 242 -225 141 -248 154
    -313 178 -159 60 -356 71 -518 30z"/>
    </g>

    <!-- Bottom wave band -->
    <g transform="translate(0.000000,1024.000000) scale(0.100000,-0.100000)"
    fill="#458588" stroke="none">
    <path d="M2905 2911 c-121 -30 -216 -79 -415 -211 -103 -68 -216 -131 -288
    -159 -132 -52 -335 -91 -474 -91 -88 0 -88 0 -88 -287 0 -257 2 -292 19 -328
    23 -51 89 -111 138 -124 54 -15 6592 -15 6646 0 49 13 115 73 138 124 17 37
    19 79 19 563 0 426 -2 524 -13 528 -26 10 -173 -28 -252 -65 -44 -21 -141 -77
    -215 -126 -253 -166 -403 -231 -620 -266 -238 -39 -468 -15 -703 75 -88 33
    -165 76 -318 176 -147 97 -299 172 -390 194 -88 22 -297 21 -387 0 -94 -23
    -246 -98 -391 -194 -172 -114 -249 -154 -387 -199 -304 -100 -600 -94 -899 16
    -95 36 -197 91 -340 185 -143 95 -295 170 -386 192 -91 22 -301 20 -394 -3z"/>
    </g>
  </g>

  <!-- Border overlay (from Gruvbox icon theme) -->
  <path d="m91 12c-72 0-85 15-85 87v56c0 70 13 85 85 85h74c72 0 85-15 85-85v-56c0-72-13-87-85-87zm0 4h74c68 0 80 15 80 83v56c0 66-12 81-80 81h-74c-68 0-80-15-80-81v-56c0-68 12-83 80-83z" fill="url(#border)" style="isolation:isolate"/>
</svg>
